<svg width="24" height="24" viewBox="0 0 24 24" fill="none" xmlns="http://www.w3.org/2000/svg">
<g clip-path="url(#clip0_247_258)">
<path d="M10.0462 5H8.24622C7.12611 5 6.56564 5 6.13782 5.21799C5.76149 5.40973 5.45575 5.71547 5.26401 6.0918C5.04602 6.51962 5.04602 7.08009 5.04602 8.2002V15.8002C5.04602 16.9203 5.04602 17.4801 5.26401 17.9079C5.45575 18.2842 5.76149 18.5905 6.13782 18.7822C6.56522 19 7.12501 19 8.24293 19H15.8491C16.967 19 17.526 19 17.9534 18.7822C18.3297 18.5905 18.6365 18.2839 18.8282 17.9076C19.046 17.4802 19.046 16.921 19.046 15.8031V14M20.046 9V4M20.046 4H15.046M20.046 4L13.046 11" stroke="white" stroke-width="2" stroke-linecap="round" stroke-linejoin="round"/>
</g>
<defs>
<clipPath id="clip0_247_258">
<rect width="24" height="24" fill="white"/>
</clipPath>
</defs>
</svg>
