<svg width="40" height="40" viewBox="0 0 40 40" fill="none" xmlns="http://www.w3.org/2000/svg">
<g clip-path="url(#clip0_95_87)">
<g clip-path="url(#clip1_95_87)">
<path d="M6.66669 31.25L11.1792 2.37292C11.2061 2.20024 11.2866 2.04038 11.4093 1.91596C11.5321 1.79154 11.6908 1.70886 11.8631 1.67961C12.0354 1.65035 12.2125 1.67601 12.3695 1.75295C12.5264 1.82989 12.6551 1.95421 12.7375 2.10834L17.4042 10.8125L19.2646 7.27084C19.3353 7.13647 19.4414 7.02396 19.5713 6.94547C19.7013 6.86698 19.8503 6.8255 20.0021 6.8255C20.1539 6.8255 20.3029 6.86698 20.4329 6.94547C20.5628 7.02396 20.6689 7.13647 20.7396 7.27084L33.3333 31.25H6.66669Z" fill="#FFA000"/>
<path d="M22.2563 20.0021L17.4021 10.8104L6.66669 31.25L22.2563 20.0021Z" fill="#F57C00"/>
<path d="M33.3333 31.25L29.8771 9.86251C29.8515 9.71183 29.7849 9.5711 29.6847 9.45571C29.5845 9.34032 29.4545 9.25471 29.3088 9.20825C29.1632 9.1618 29.0077 9.15628 28.8591 9.1923C28.7106 9.22833 28.5748 9.30451 28.4667 9.41251L6.66669 31.25L18.7292 38.0146C19.1017 38.2226 19.5213 38.3318 19.9479 38.3318C20.3746 38.3318 20.7942 38.2226 21.1667 38.0146L33.3333 31.25Z" fill="#FFCA28"/>
<path d="M29.8771 9.86251C29.8515 9.71183 29.7849 9.5711 29.6847 9.45571C29.5845 9.34032 29.4545 9.25471 29.3089 9.20825C29.1632 9.1618 29.0077 9.15628 28.8591 9.1923C28.7106 9.22833 28.5748 9.30451 28.4667 9.41251L24.1417 13.75L20.7375 7.26876C20.6668 7.13439 20.5608 7.02188 20.4308 6.94339C20.3008 6.86491 20.1519 6.82342 20 6.82342C19.8482 6.82342 19.6992 6.86491 19.5693 6.94339C19.4393 7.02188 19.3332 7.13439 19.2625 7.26876L17.4021 10.8104L12.7354 2.10835C12.6529 1.95419 12.524 1.82989 12.3669 1.75306C12.2098 1.67624 12.0326 1.65077 11.8602 1.68026C11.6878 1.70975 11.5291 1.79272 11.4065 1.9174C11.2839 2.04209 11.2037 2.20218 11.1771 2.37501L6.66669 31.25H6.65002L6.66461 31.2667L6.78336 31.325L24.1313 13.9583L28.4604 9.62501C28.5685 9.51642 28.7044 9.43973 28.8533 9.40336C29.0021 9.36699 29.1581 9.37235 29.304 9.41886C29.45 9.46537 29.5804 9.55122 29.6807 9.66697C29.7811 9.78273 29.8476 9.92392 29.8729 10.075L33.3 31.2708L33.3334 31.25L29.8771 9.86251ZM6.70627 31.2104L11.1792 2.58126C11.2058 2.40843 11.286 2.24834 11.4086 2.12365C11.5312 1.99897 11.6899 1.916 11.8623 1.88651C12.0346 1.85702 12.2119 1.88249 12.369 1.95931C12.5261 2.03614 12.655 2.16044 12.7375 2.3146L17.4042 11.0188L19.2646 7.4771C19.3353 7.34272 19.4414 7.23021 19.5713 7.15173C19.7013 7.07324 19.8503 7.03176 20.0021 7.03176C20.1539 7.03176 20.3029 7.07324 20.4329 7.15173C20.5629 7.23021 20.6689 7.34272 20.7396 7.4771L24.0729 13.8167L6.70627 31.2104Z" fill="white" fill-opacity="0.2"/>
<path opacity="0.2" d="M21.1667 37.8104C20.7942 38.0184 20.3746 38.1276 19.9479 38.1276C19.5213 38.1276 19.1017 38.0184 18.7292 37.8104L6.69585 31.0604L6.66669 31.25L18.7292 38.0125C19.1017 38.2205 19.5213 38.3297 19.9479 38.3297C20.3746 38.3297 20.7942 38.2205 21.1667 38.0125L33.3333 31.25L33.3021 31.0583L21.1667 37.8104Z" fill="#A52714"/>
<path d="M29.8771 9.86251C29.8515 9.71183 29.7849 9.5711 29.6847 9.45571C29.5845 9.34032 29.4545 9.25471 29.3088 9.20825C29.1632 9.1618 29.0077 9.15628 28.8591 9.1923C28.7106 9.22833 28.5748 9.30451 28.4667 9.41251L24.1417 13.75L20.7375 7.26876C20.6668 7.13439 20.5608 7.02188 20.4308 6.94339C20.3008 6.86491 20.1519 6.82342 20 6.82342C19.8482 6.82342 19.6992 6.86491 19.5693 6.94339C19.4393 7.02188 19.3332 7.13439 19.2625 7.26876L17.4021 10.8104L12.7354 2.10835C12.6529 1.95419 12.524 1.82989 12.3669 1.75306C12.2098 1.67624 12.0326 1.65077 11.8602 1.68026C11.6878 1.70975 11.5291 1.79272 11.4065 1.9174C11.2839 2.04209 11.2037 2.20218 11.1771 2.37501L6.66669 31.25L18.7292 38.0125C19.1017 38.2205 19.5213 38.3297 19.9479 38.3297C20.3746 38.3297 20.7942 38.2205 21.1667 38.0125L33.3333 31.25L29.8771 9.86251Z" fill="url(#paint0_linear_95_87)"/>
</g>
</g>
<defs>
<linearGradient id="paint0_linear_95_87" x1="5.66419" y1="8.39189" x2="33.5156" y2="36.2433" gradientUnits="userSpaceOnUse">
<stop stop-color="white" stop-opacity="0.1"/>
<stop offset="1" stop-color="white" stop-opacity="0"/>
</linearGradient>
<clipPath id="clip0_95_87">
<rect width="40" height="40" fill="white"/>
</clipPath>
<clipPath id="clip1_95_87">
<rect width="40" height="40" fill="white"/>
</clipPath>
</defs>
</svg>
