<svg width="40" height="40" viewBox="0 0 40 40" fill="none" xmlns="http://www.w3.org/2000/svg">
<g clip-path="url(#clip0_95_87)">
<path fill-rule="evenodd" clip-rule="evenodd" d="M5.55353 36.0015L2.34375 0H37.6137L34.4005 35.9958L19.9571 40L5.55353 36.0015Z" fill="#E44D26"/>
<path fill-rule="evenodd" clip-rule="evenodd" d="M19.9788 36.9394L31.6497 33.7037L34.3956 2.94365H19.9788V36.9394Z" fill="#F16529"/>
<path d="M14.136 16.2961H19.9787V20.7115H10.0978L8.90692 7.35913H19.9787V11.7746H13.7324L14.136 16.2961Z" fill="#EBEBEB"/>
<path d="M19.9594 27.7686L19.9787 27.7634V32.3573L19.9584 32.363L10.9137 29.8521L10.2951 22.9192H14.7275L15.0419 26.4408L19.9594 27.7686Z" fill="#EBEBEB"/>
<path d="M19.9635 7.35913H31.0242L30.6289 11.7746H19.9635V7.35913Z" fill="white"/>
<path d="M19.9635 20.7115V16.2961H30.2271L30.1194 17.4817L29.0154 29.8521L19.9635 32.3608V27.7671L24.8881 26.4379L25.4006 20.7115H19.9635Z" fill="white"/>
</g>
<defs>
<clipPath id="clip0_95_87">
<rect width="40" height="40" fill="white"/>
</clipPath>
</defs>
</svg>
