<svg width="40" height="40" viewBox="0 0 40 40" fill="none" xmlns="http://www.w3.org/2000/svg">
<g clip-path="url(#clip0_95_87)">
<circle cx="20" cy="20" r="20" fill="white"/>
<path fill-rule="evenodd" clip-rule="evenodd" d="M24.929 17.7521C24.9356 12.9622 24.9572 12.451 25.1603 12.3C25.5267 12.0274 26.6226 12.0892 26.9334 12.4C27.1931 12.6597 27.2 12.8444 27.2 19.56C27.2 23.582 27.1507 26.4005 27.0816 26.3266C27.0166 26.257 26.5039 25.4884 25.9426 24.6188L24.9218 23.0376L24.929 17.7521ZM12.6 13.0078L12.9334 12.8392C13.302 12.6526 13.7551 12.6244 14.3776 12.7488C14.7464 12.8226 15.1835 13.4269 18.644 18.6488C23.2179 25.5506 29.6228 35.2469 30.2596 36.2333C30.4452 36.5205 30.6312 36.7689 30.7371 36.8764C30.3584 37.1179 29.9711 37.3469 29.5756 37.563C29.5955 37.5035 29.5558 37.4551 29.474 37.4045C28.9108 37.0565 18.426 22.2272 15.4059 17.5073C14.8004 16.561 14.8 16.5652 14.8 22.9108C14.8 27.3757 14.7598 28.9202 14.64 29.04C14.398 29.282 12.997 29.2446 12.7419 28.9894C12.5539 28.8014 12.535 27.9306 12.5656 20.8933L12.6 13.0078Z" fill="black"/>
</g>
<defs>
<clipPath id="clip0_95_87">
<rect width="40" height="40" fill="white"/>
</clipPath>
</defs>
</svg>
