<svg width="40" height="40" viewBox="0 0 40 40" fill="none" xmlns="http://www.w3.org/2000/svg">
<g clip-path="url(#clip0_95_87)">
<path d="M40 22.8V20L37.6 14L33.2 8.8L28.4 6L20.4 3.2L11.2 7.2L3.19998 12.4L1.59998 16.8L3.19998 24.8L4.79998 31.6L6.79998 33.2H9.99998L18.4 32.4L34.4 29.6L38 25.2L40 22.8Z" fill="#D9D9D9"/>
<path fill-rule="evenodd" clip-rule="evenodd" d="M12.2922 24.4766C11.5656 24.8742 10.4709 25.5183 9.62406 26.2188C8.23375 27.3676 7.94281 28.9612 8.67625 29.3335C9.35469 29.6777 10.9386 29.2682 12.0722 28.1863C13.2619 27.0505 13.7525 25.6105 13.2458 23.9759C13.1862 24.007 13.1278 24.0381 13.0705 24.0671L13.0717 24.0693L12.9948 24.1074C12.6991 24.2619 12.4573 24.3894 12.2922 24.4766ZM32.7095 23.9609C32.298 24.7435 32.2773 24.9953 32.4023 25.0736C32.9995 24.8859 33.9875 24.4335 33.9953 23.2212C33.9966 23.0397 33.9508 22.8448 33.8773 22.6413C33.2389 23.1359 32.8709 23.6538 32.7095 23.9609ZM39.1173 21.5947C37.522 21.432 36.2772 21.6278 35.3111 21.98C35.49 22.3874 35.6275 22.8118 35.6469 23.2393C35.6917 24.1776 34.9536 24.872 34.1844 25.3677C33.7352 25.6567 33.2572 25.8494 32.8559 25.9657C32.5352 26.0841 32.1087 26.2065 31.8061 26.1525C31.1389 26.0338 30.7837 25.5152 31.2377 24.3713C31.4828 23.7523 32.19 22.8098 33.3316 21.9981C33.0714 21.5295 32.7814 21.0519 32.6336 20.6132C32.3423 19.7483 32.2544 19.2255 32.2544 19.2255C32.2544 19.2255 31.3134 20.9324 30.0995 22.4847C30.0295 22.575 29.9597 22.6634 29.8897 22.7516C30.1281 23.2364 30.3159 23.7491 30.3414 24.266C30.3861 25.2042 29.9219 25.9136 29.1516 26.4083C28.7345 26.6774 28.2897 26.8632 27.908 26.9814C27.6639 27.0747 27.1675 27.2281 26.4616 27.2693C26.0755 27.2924 25.7041 27.2715 25.4967 27.134C25.2113 26.9453 25.1769 26.7125 25.3247 26.3943C25.4497 26.1243 26.3848 25.1903 27.1689 24.3724C27.3855 24.1465 27.5917 23.9158 27.7762 23.7021L27.7717 23.6929C27.7717 23.6929 27.9137 23.5325 28.1442 23.2525C27.8577 22.7126 27.4944 22.1506 27.3236 21.6409C27.0323 20.776 26.9442 20.2531 26.9442 20.2531C26.9442 20.2531 25.9905 22.3926 24.9969 24.1005C24.228 25.4232 23.7144 26.2248 23.483 26.576L23.4806 26.5901C23.4806 26.5901 23.4461 26.6414 23.3866 26.7216L23.342 26.7867L23.3408 26.7807C23.0828 27.114 22.5041 27.7671 21.9287 27.7671C20.3494 27.7671 20.9292 24.9604 20.9292 24.9604C20.9292 24.9604 20.4675 26 19.947 26.8921C19.5231 27.6196 19.1369 28.2359 18.2922 28.2359C18.0492 28.2359 17.6641 28.2298 17.3442 27.9637C16.6187 27.3607 16.0641 25.8293 16.1728 24.6432C16.2656 23.6348 16.4433 22.9363 16.6862 22.3535C16.253 22.5601 15.7522 22.8051 15.2422 23.067L14.4581 23.4713L14.4834 23.5115C15.132 24.6093 15.3052 27.0146 13.8908 28.861C12.4766 30.7084 9.84391 31.8323 7.27891 31.2082C6.45125 31.0064 5.20094 29.5083 6.27937 27.42C7.23062 25.5785 11.0323 23.8376 12.0342 23.4031L12.3092 23.2706C10.3117 21.7413 5.32359 19.6782 4.62453 16.5092C4.42734 15.6171 4.90531 13.4837 7.89891 11.0312C10.4169 8.9691 13.9195 7.38959 17.1552 6.38307C22.5911 4.69226 28.3345 5.68963 29.2181 8.72219C30.0869 11.7046 27.13 15.272 23.3431 16.5544C19.962 17.6993 17.1666 17.5177 16.0181 17.1877C14.7127 16.8124 13.947 16.0587 13.7603 15.6332C13.6869 15.4667 13.5606 15.1868 13.7603 15.0904C13.8828 15.0312 13.932 15.0453 14.2598 15.3624C14.5717 15.6634 15.8255 16.4713 18.2072 16.2374C24.4572 15.6243 28.222 11.3725 27.0323 9.0845C26.1992 7.48297 21.382 6.76041 15.3636 9.38651C8.01688 12.5916 7.61812 15.2338 7.55516 16.2374C7.38312 18.9978 11.4461 20.4499 13.6445 22.5029L13.7292 22.5843C14.1406 22.3856 14.5752 22.1759 15.0014 21.9712C16.1098 21.4383 17.1552 20.9384 17.6422 20.7056C18.4159 19.7215 19.9859 18.6355 21.1195 18.6355C22.9316 18.6355 22.3092 20.9145 22.3092 20.9145C22.3092 20.9145 22.3459 20.8102 22.3952 20.8092C22.4467 20.808 22.6462 20.509 23.2056 20.6876C23.7809 20.8723 23.6502 21.2255 23.6537 21.2616C23.6606 21.3318 22.9741 23.3578 22.6887 24.6573C22.5522 25.2775 22.6312 25.7292 22.6716 25.7292C22.7277 25.7292 22.8423 25.5716 22.9489 25.402L22.9466 25.397C22.9466 25.397 23.0267 25.2686 23.1609 25.0378L23.1873 24.9896L23.1884 24.9917C23.3467 24.7208 23.5689 24.3224 23.8256 23.8287C24.3287 22.8584 26.2484 19.1123 26.4112 18.6979C26.5739 18.2835 26.6587 17.855 26.7391 17.6713C26.8181 17.4877 27.4967 17.3492 28.2897 17.3542C29.0828 17.3593 29.1633 17.6553 29.1687 17.7165C29.1745 17.7776 28.7917 18.5996 28.7034 19.1805C28.6164 19.7616 28.7002 20.0514 28.7723 20.5392C28.8194 20.8582 29.0473 21.2627 29.3169 21.7213C30.1375 20.5471 31.5814 18.3014 31.7202 17.6722C31.8152 17.2418 31.9677 16.8294 32.048 16.6456C32.1281 16.462 32.8056 16.3236 33.5986 16.3285C34.3917 16.3336 34.4719 16.6296 34.4777 16.6909C34.4834 16.7521 34.0994 17.5739 34.0123 18.155C33.9252 18.7349 34.0091 19.026 34.0811 19.5137C34.1431 19.9311 34.512 20.492 34.8778 21.1301C35.8759 20.6996 37.0508 20.4107 38.4262 20.4047C38.9958 20.4018 39.6572 20.4519 39.9987 20.5451V10.9448C39.9987 10.2675 39.602 9.6434 38.9317 9.3053L21.0337 0.253682C20.3645 -0.0845607 19.545 -0.0845607 18.8756 0.253682L1.02703 9.30092C0.357656 9.63916 0 10.2644 0 10.9406V29.0516C0 29.7278 0.359844 30.353 1.02812 30.6911L18.9055 39.7455C19.5747 40.0848 20.3862 40.0848 21.0555 39.7455L38.9409 30.6911C39.6102 30.3519 40 29.7277 40 29.0516V21.7322C39.773 21.6737 39.4406 21.6276 39.1173 21.5947ZM19.8623 20.6463C19.4784 21.0225 18.8241 21.9928 18.518 22.8049C17.9094 24.4174 18.173 26.0561 18.6039 26.1545C19.107 26.2698 19.9323 24.1144 20.3275 23.2714C20.5752 22.7435 21.538 20.4006 21.327 20.0875C21.1623 19.8426 20.4802 20.0403 19.8623 20.6463ZM26.8253 26.0811C26.8253 26.0811 26.7039 26.1816 26.7564 26.2096C26.8275 26.2468 26.9811 26.1986 27.1484 26.1223C27.6219 25.8615 28.6842 25.2112 28.6866 24.2488C28.6866 24.2208 28.6853 24.1937 28.6831 24.1646C28.4367 24.4476 28.2097 24.6994 28.0137 24.9131C27.6791 25.2773 26.8253 26.0811 26.8253 26.0811Z" fill="#C16A98"/>
</g>
<defs>
<clipPath id="clip0_95_87">
<rect width="40" height="40" fill="white"/>
</clipPath>
</defs>
</svg>
